<svg width="72" height="72" viewBox="0 0 72 72" fill="none" xmlns="http://www.w3.org/2000/svg">
<rect width="72" height="72" fill="#F2F1FF"/>
<path opacity="0.35" d="M50 47H22C18.686 47 16 44.314 16 41V25C16 21.686 18.686 19 22 19H50C53.314 19 56 21.686 56 25V41C56 44.314 53.314 47 50 47Z" fill="#4A3AFF"/>
<path d="M43 47C42.648 47 29.352 47 29 47C27.344 47 26 48.344 26 50C26 51.656 27.344 53 29 53C29.352 53 42.648 53 43 53C44.656 53 46 51.656 46 50C46 48.344 44.656 47 43 47Z" fill="#4A3AFF"/>
</svg>
