<svg width="72" height="72" viewBox="0 0 72 72" fill="none" xmlns="http://www.w3.org/2000/svg">
<rect width="72" height="72" fill="#F2F1FF"/>
<path opacity="0.35" d="M36 34.9999C40.4183 34.9999 44 31.4182 44 26.9999C44 22.5816 40.4183 18.9999 36 18.9999C31.5817 18.9999 28 22.5816 28 26.9999C28 31.4182 31.5817 34.9999 36 34.9999Z" fill="#4A3AFF"/>
<path opacity="0.35" d="M21 38.9999C23.7614 38.9999 26 36.7613 26 33.9999C26 31.2385 23.7614 28.9999 21 28.9999C18.2386 28.9999 16 31.2385 16 33.9999C16 36.7613 18.2386 38.9999 21 38.9999Z" fill="#4A3AFF"/>
<path opacity="0.35" d="M51 38.9999C53.7614 38.9999 56 36.7613 56 33.9999C56 31.2385 53.7614 28.9999 51 28.9999C48.2386 28.9999 46 31.2385 46 33.9999C46 36.7613 48.2386 38.9999 51 38.9999Z" fill="#4A3AFF"/>
<path d="M42 52.9999H30C26.686 52.9999 24 49.8659 24 45.9999C24 42.1339 26.686 38.9999 30 38.9999H42C45.314 38.9999 48 42.1339 48 45.9999C48 49.8659 45.314 52.9999 42 52.9999Z" fill="#4A3AFF"/>
<path opacity="0.35" d="M55.102 42.9999H16.744C14.124 42.9999 12 45.1239 12 47.7439V48.2579C12 50.8759 14.124 52.9999 16.744 52.9999H55.102C57.806 52.9999 60 50.8059 60 48.0999V47.8979C60 45.1939 57.806 42.9999 55.102 42.9999Z" fill="#4A3AFF"/>
</svg>
