<svg width="72" height="72" viewBox="0 0 72 72" fill="none" xmlns="http://www.w3.org/2000/svg">
<rect width="72" height="72" fill="#F2F1FF"/>
<path opacity="0.35" d="M43.9995 49.856C45.3555 49.074 46.9175 49.008 48.2695 49.528C49.3975 49.962 50.6875 49.602 51.4535 48.668C52.8195 47.002 53.9215 45.112 54.6955 43.058C55.1375 41.884 54.7195 40.594 53.7615 39.782C52.6835 38.874 51.9995 37.522 51.9995 36C51.9995 34.478 52.6835 33.126 53.7595 32.214C54.7175 31.402 55.1375 30.114 54.6935 28.938C53.9195 26.886 52.8195 24.994 51.4515 23.328C50.6855 22.394 49.3955 22.034 48.2675 22.468C46.9175 22.992 45.3555 22.926 43.9995 22.144C42.6395 21.358 41.7995 20.032 41.5795 18.594C41.3995 17.418 40.4675 16.478 39.2935 16.278C38.2215 16.096 37.1215 16 35.9995 16C34.8775 16 33.7775 16.096 32.7055 16.278C31.5315 16.478 30.6015 17.418 30.4195 18.594C30.1995 20.032 29.3595 21.358 27.9995 22.144C26.6435 22.926 25.0815 22.992 23.7295 22.47C22.6015 22.036 21.3115 22.396 20.5455 23.33C19.1795 24.996 18.0795 26.886 17.3055 28.94C16.8615 30.114 17.2815 31.404 18.2395 32.214C19.3155 33.126 19.9995 34.478 19.9995 36C19.9995 37.522 19.3155 38.874 18.2395 39.786C17.2815 40.598 16.8615 41.886 17.3055 43.062C18.0795 45.114 19.1795 47.006 20.5475 48.672C21.3135 49.606 22.6035 49.966 23.7315 49.532C25.0815 49.008 26.6435 49.074 27.9995 49.856C29.3595 50.642 30.1995 51.968 30.4195 53.406C30.5995 54.582 31.5315 55.522 32.7055 55.722C33.7775 55.904 34.8775 56 35.9995 56C37.1215 56 38.2215 55.904 39.2935 55.722C40.4675 55.524 41.3995 54.584 41.5795 53.406C41.7995 51.968 42.6395 50.642 43.9995 49.856Z" fill="#4A3AFF"/>
<path d="M35.9995 28C31.5815 28 27.9995 31.582 27.9995 36C27.9995 40.418 31.5815 44 35.9995 44C40.4175 44 43.9995 40.418 43.9995 36C43.9995 31.582 40.4175 28 35.9995 28Z" fill="#4A3AFF"/>
</svg>
